<?xml version="1.0" encoding="utf-8"?>
<!-- Generator: Adobe Illustrator 16.0.0, SVG Export Plug-In . SVG Version: 6.00 Build 0)  -->
<!DOCTYPE svg PUBLIC "-//W3C//DTD SVG 1.1//EN" "http://www.w3.org/Graphics/SVG/1.1/DTD/svg11.dtd">
<svg version="1.1" xmlns="http://www.w3.org/2000/svg" xmlns:xlink="http://www.w3.org/1999/xlink" x="0px" y="0px"
	 width="235.932px" height="315.684px" viewBox="0 0 235.932 315.684" enable-background="new 0 0 235.932 315.684"
	 xml:space="preserve">
<g id="cane">
	<g>
		<path fill="#FFFFFF" stroke="#BBBBBB" stroke-miterlimit="10" d="M5.455,277.966l171.751-170.622c0,0,29.942-37.289,2.824-55.933
			c-7.344-3.955-32.203-22.599-66.666,28.249c-2.26,6.215-9.604,23.729-36.158,18.644c-3.39-3.39-19.209-16.949-6.215-35.028
			S126.36-24.86,194.156,10.168c15.254,9.604,42.372,25.423,41.242,72.316c-1.13,13.56-3.955,38.983-40.678,68.362
			c-9.604,11.299-159.887,159.322-159.887,159.322s-18.08,14.689-31.639-6.215C-0.195,293.784-1.324,286.441,5.455,277.966z"/>
		<g>
			<polygon fill="#FF1F00" points="14.025,269.579 33.692,310.87 53.859,291.35 34.276,249.405 			"/>
			<polygon fill="#FF1F00" points="55,229.459 74.468,270.381 94.468,250.568 75.234,209.365 			"/>
			<polygon fill="#FF1F00" points="95.38,189.329 114.984,230.271 134.953,210.459 115.625,169.162 			"/>
			<polygon fill="#FF1F00" points="136.89,148.053 156.379,189.204 176.317,169.162 157.078,128.037 			"/>
			<path fill="#FF1F00" d="M198.693,146.87l-22-37.792c0,0,11.834-17.167,12.5-22.5c-0.167-0.167,33.666,33.5,33.666,33.5
				S212.61,135.745,198.693,146.87z"/>
			<path fill="#FF1F00" d="M191.734,74.037l43.125,6.25c0,0,1.5-19.875-8.25-37.75c0,0.063-43.375,10.875-43.375,10.875
				S192.984,60.912,191.734,74.037z"/>
			<path fill="#FF1F00" d="M152.526,1.246l-1.5,44.417c0,0,10.251-3.167,17.834,0c0.166-0.083,21.666-36.75,21.666-36.75
				S173.192-1.004,152.526,1.246z"/>
			<path fill="#FF1F00" d="M115.942,75.329c0,0,9.5-13.333,18.5-20.75c0.084,0.167-17.083-41.25-17.083-41.25
				s-16.333,11.083-26,23.333L115.942,75.329z"/>
			<path fill="#FF1F00" d="M91.609,98.662l-22-32.917c0,0-10.75,15.167,5.25,30.083C74.859,95.829,77.442,100.912,91.609,98.662z"/>
		</g>
	</g>
</g>
<g id="stripe">
</g>
</svg>
