<?xml version="1.0" encoding="utf-8"?>
<!-- Generator: Adobe Illustrator 16.0.0, SVG Export Plug-In . SVG Version: 6.00 Build 0)  -->
<!DOCTYPE svg PUBLIC "-//W3C//DTD SVG 1.1//EN" "http://www.w3.org/Graphics/SVG/1.1/DTD/svg11.dtd">
<svg version="1.1" xmlns="http://www.w3.org/2000/svg" xmlns:xlink="http://www.w3.org/1999/xlink" x="0px" y="0px"
	 width="201.665px" height="277.064px" viewBox="0 0 201.665 277.064" enable-background="new 0 0 201.665 277.064"
	 xml:space="preserve">
<g id="head">
	<ellipse fill="#CE7F49" cx="91.996" cy="45.25" rx="48.583" ry="45.25"/>
	<path fill="#A5623D" d="M82.579,86.374C63.37,81.998,49.412,68.249,49.412,43.258c0-19.566,14.547-36.229,34.909-42.542
		c-23.945,4.354-41.909,22.508-41.909,44.25c0,24.991,21.132,40.28,39.625,43.862"/>
</g>
<g id="body">
	<path fill="#A5623D" d="M66.246,270c-11.333-3.333-6.333-9-5.667-13.333c12.667-64.333,16.333-119.333,16.333-119.333
		c-15.5-14.5-34.667-4.334-38.5-2.667c-3.167,4.833-27.667,7.667-30.5-8.833c-2.129-12.4,4.401-20.846,10.254-25.976
		c-0.749,0.317-1.496,0.63-2.254,0.976c-5.833,4-18.333,13.5-15.5,30c2.833,16.501,27.333,13.667,30.5,8.834
		c3.833-1.667,23-11.833,38.5,2.667c0,0-3.667,55-16.333,119.333c-0.667,4.333-5.666,10,5.667,13.333
		c8.596,2.528,27.345,4.469,35.978-5.135C85.336,273.519,72.821,271.933,66.246,270z"/>
	<path fill="#A5623D" d="M139.579,254.333c-11-0.5-10-2.5-11.167-9.166c-1.333-39-3.5-41.167-8.167-46.834
		c-2.763-3.354-5.991-0.343-8.167,4.332c0.224,0.188,0.447,0.401,0.667,0.668c4.667,5.667,6.834,7.834,8.167,46.834
		c1.167,6.666,0.167,8.666,11.167,9.166c9.997,0.454,26.598,1.871,30.043-5.631C155.462,255.338,146.11,254.629,139.579,254.333z"/>
	<g>
		<path fill="#CE7F49" d="M81.912,87.967l-1,8.167c0,0-24.667-14.833-59,0.833c-5.833,4-18.333,13.5-15.5,30
			c2.833,16.501,27.333,13.667,30.5,8.834c3.833-1.667,23-11.833,38.5,2.667c0,0-3.667,55-16.333,119.333
			c-0.667,4.333-5.666,10,5.667,13.333s40.333,5.666,40.5-18.167c1.333-5.833,3.833-30.666,3.833-38.666s6-20.501,10.667-14.834
			s6.834,7.834,8.167,46.834c1.167,6.666,0.167,8.666,11.167,9.166s29.999,2.168,30.666-8.166s-0.332-86.833-16.666-113.5
			c7.666-5.667,42.521-38.855,46.5-51.999c1-3.167,8.833-26.002-14.167-32.668s-26.333,22-26.333,23.333s-16.667,14.667-28,16.667
			c-1-3.333-5.333-12.333-5.333-12.333L81.912,87.967z"/>
		<path fill="#A5623D" d="M185.354,49.194c-16.439-4.765-22.829,8.518-25.138,16.972c3.312-7.645,10.027-15.571,23.305-11.722
			c19.491,5.649,16.84,22.906,14.969,29.968c0.442-0.913,0.795-1.769,1.031-2.55C200.521,78.696,208.354,55.86,185.354,49.194z"/>
	</g>
</g>
<g id="mouth">
	<path fill="#FFFFFF" d="M122.579,57.5c-1.5-7-6.667-9.333-14.167-4.167S90.079,59,90.079,59c-12.667-0.167-11.333,11-7.5,13.667
		C101.746,83.5,124.079,64.5,122.579,57.5z M115.079,60c-1.5,4.5-14.334,12.833-27.667,8.167c-3.833-2.333,0.5-3.333,2.167-3
		c0,0,12.166,0.5,22.833-7.667C113.912,56.5,116.579,55.5,115.079,60z"/>
</g>
<g id="right-eye">
	<circle fill="#FFFFFF" cx="75.162" cy="48.417" r="7.25"/>
</g>
<g id="buttons">
	<g>
		<circle fill="#FFFFFF" cx="114.725" cy="140.854" r="10.313"/>
		<path fill="#E9E9E9" d="M106.653,140.854c0-5.314,4.022-9.688,9.188-10.248c-0.37-0.041-0.745-0.064-1.125-0.064
			c-5.695,0-10.313,4.617-10.313,10.313s4.617,10.313,10.313,10.313c0.38,0,0.755-0.023,1.125-0.064
			C110.675,150.542,106.653,146.168,106.653,140.854z"/>
	</g>
	<g>
		<circle fill="#FFFFFF" cx="110.224" cy="110.729" r="9.563"/>
		<path fill="#E9E9E9" d="M102.74,110.729c0-4.928,3.729-8.984,8.52-9.503c-0.343-0.038-0.691-0.06-1.043-0.06
			c-5.281,0-9.563,4.282-9.563,9.563s4.282,9.563,9.563,9.563c0.353,0,0.7-0.022,1.043-0.06
			C106.469,119.712,102.74,115.657,102.74,110.729z"/>
	</g>
</g>
<g id="left-eye">
	<circle fill="#FFFFFF" cx="112.162" cy="33.917" r="8.5"/>
</g>
<g id="eyebrows">
	<path fill="#FFFFFF" d="M56.412,40.333c0,0,9.167-11.667,11-13s7.667,0.167,5.5,5.25c-1.083,1.417-7.416,8-8.333,10.083
		S61.246,49,56.496,44c-0.75-1.583-0.854-2.25-0.438-3.167"/>
	<path fill="#FFFFFF" d="M101.954,11.665c0,0,14.875-0.083,16.083,0.25s3.374,1.708,2.958,5.125c0,0-1.374,2.208-3.833,2.167
		c-2.458-0.042-11.542-0.542-14.958-0.042c-1.5-0.167-3.5-1.292-3.583-3.583C98.746,14.373,99.87,11.665,101.954,11.665z"/>
</g>
</svg>
