<?xml version="1.0" encoding="utf-8"?>
<!-- Generator: Adobe Illustrator 16.0.0, SVG Export Plug-In . SVG Version: 6.00 Build 0)  -->
<!DOCTYPE svg PUBLIC "-//W3C//DTD SVG 1.1//EN" "http://www.w3.org/Graphics/SVG/1.1/DTD/svg11.dtd">
<svg version="1.1" xmlns="http://www.w3.org/2000/svg" xmlns:xlink="http://www.w3.org/1999/xlink" x="0px" y="0px"
	 width="399.335px" height="206.674px" viewBox="0 0 399.335 206.674" enable-background="new 0 0 399.335 206.674"
	 xml:space="preserve">
<g id="leaves">
	<path fill="#174416" d="M193.667,190.667L200,115.333c0,0,37.334,6,38.334,73.667c-0.334,0.333,36.332-60.999,79.666,5.667
		c-0.666,0.666,19.668-37.333,81.334-11C399.667,184.667,325,143,350,95c0.667,0.333-56.666-1.333-28.666-51L173.667,84l-76-34
		c0,0,37,68-37,57c-0.333,0,46,35.334-60.667,82.667c1.333,0.333,112.333-37.333,122,17
		C122.333,207.333,144.334,156.334,193.667,190.667z"/>
</g>
<g id="berries">
	<circle fill="#B61412" cx="180.333" cy="93.667" r="36.667"/>
	<circle fill="#B61412" cx="245" cy="68.667" r="33.334"/>
	<circle fill="#B61412" cx="196.166" cy="29.834" r="29.835"/>
	<g>
		<path fill="#D8221F" d="M254.667,45.333c0,0,26.334,50.333-14.333,51c-10-3.667-39.666-20-9-52
			C231.334,44.333,247,33,254.667,45.333z"/>
		<path fill="#E76E4F" d="M237.667,49c0,0-10.334,13.667-5.667,34.333c-0.666,2-6,7.667-11.333-2.667C221,80.333,214,55.667,236,44
			C238.334,44,239.334,46.667,237.667,49z"/>
	</g>
	<g>
		<path fill="#D8221F" d="M191.213,67.043c0,0,29.583,56.542-16.101,57.291c-11.233-4.118-44.559-22.467-10.11-58.414
			C165.002,65.92,182.601,53.188,191.213,67.043z"/>
		<path fill="#E76E4F" d="M172.117,71.162c0,0-11.608,15.353-6.366,38.568c-0.748,2.247-6.74,8.612-12.73-2.995
			c0.374-0.375-7.489-28.084,17.224-41.19C172.866,65.545,173.989,68.541,172.117,71.162z"/>
	</g>
	<g>
		<path fill="#D8221F" d="M203.577,9.421c0,0,22.158,42.353-12.06,42.913c-8.415-3.084-33.376-16.828-7.573-43.753
			C183.944,8.58,197.127-0.957,203.577,9.421z"/>
		<path fill="#E76E4F" d="M189.273,12.506c0,0-8.695,11.5-4.769,28.889c-0.561,1.684-5.048,6.451-9.535-2.243
			c0.28-0.281-5.61-21.037,12.9-30.853C189.834,8.299,190.676,10.542,189.273,12.506z"/>
	</g>
</g>
</svg>
