<?xml version="1.0" encoding="utf-8"?>
<!-- Generator: Adobe Illustrator 16.0.0, SVG Export Plug-In . SVG Version: 6.00 Build 0)  -->
<!DOCTYPE svg PUBLIC "-//W3C//DTD SVG 1.1//EN" "http://www.w3.org/Graphics/SVG/1.1/DTD/svg11.dtd">
<svg version="1.1" xmlns="http://www.w3.org/2000/svg" xmlns:xlink="http://www.w3.org/1999/xlink" x="0px" y="0px"
	 width="156.515px" height="237.351px" viewBox="0 0 156.515 237.351" enable-background="new 0 0 156.515 237.351"
	 xml:space="preserve">
<g id="left-leg">
	<path fill="#333333" d="M129.666,158.869l13.666,12.667l-6.333,9.333c0,0,0.25,1.593,1.5,0.51s6.167-9.333,6.167-9.333l4.333,8.833
		c0,0,1.666,0.667,1.333-0.833s-3.833-8.75-3.833-8.75l9.333,1.5c0,0,1.417-0.834,0.167-1.334s-9.083-1.916-9.083-1.916l3.833-7.5
		c0,0-0.333-2.084-1.25-0.667s-4.917,7.5-4.917,7.5l-12.583-11.083L129.666,158.869z"/>
</g>
<g id="body_1_">
	<path fill="#7A5841" d="M106.685,62.909c-1.119-3.602-4.112-15.703,2.055-26.614c1.694,0,23.164-5.085,23.164-5.085
		s11.3-5.649-2.26-5.649c0.564,0-11.3-2.26-11.3-2.26S107.999-9.135,57.666,2.532c-50.075,11.607-64.292,89.708-55,137
		c-0.011,0,0.187,1.552,0.083,0.698c3.154,30.106,23.452,54.503,52.098,60.715c36.593,7.935,73.359-18.387,82.121-58.791
		C143.979,109.825,130.923,78.293,106.685,62.909z"/>
</g>
<g id="belly">
	<path fill="#C43706" d="M136.968,142.154c7.011-32.329-6.045-63.86-30.283-79.245c-0.497-1.6-6.166-1.105-6.436-5.21l-7.75,20.375
		l-60.75,57.125c0,0,8.911,45.305,79.855,50.328C123.868,174.923,133.12,159.899,136.968,142.154z"/>
</g>
<g id="wing">
	<path fill="#7A5841" stroke="#333333" stroke-width="0.5" stroke-miterlimit="10" d="M103.666,56.532c0,0-11.667,50-91.333,91.667
		c-0.333-0.667,16.333-51.667,14.333-86.333"/>
	
		<line fill="#333333" stroke="#333333" stroke-width="0.25" stroke-miterlimit="10" x1="35.333" y1="133.873" x2="41.999" y2="103.872"/>
	
		<line fill="#333333" stroke="#333333" stroke-width="0.25" stroke-miterlimit="10" x1="47.333" y1="126.873" x2="53.999" y2="96.872"/>
	
		<line fill="#333333" stroke="#333333" stroke-width="0.25" stroke-miterlimit="10" x1="61.333" y1="115.049" x2="67.999" y2="85.048"/>
</g>
<g id="beak">
	<path fill="#333333" d="M108.739,36.295c0,0-0.615-3.721-3.24-3.471c0.25,0.25-5,0.5-5,0.5s14.5-6,17.375-10
		c0,0,18.25-0.875,19.875,5.75C137.749,29.074,123.354,35.391,108.739,36.295z"/>
	<path fill="#333333" stroke="#BBBBBB" stroke-width="0.2" stroke-miterlimit="10" d="M101.166,33.116
		c0,0,30.833-4.792,36.583-4.042"/>
</g>
<g id="eyes">
	<circle fill="#FFFFFF" cx="90.374" cy="20.074" r="6.625"/>
</g>
<g id="pupil">
	<circle fill="#333333" cx="91.874" cy="21.324" r="3.875"/>
</g>
<g id="right-leg">
	<path fill="#333333" d="M76.666,195.199l5.333,8.333l36,15.334l1.5,17.708c0,0,1.625,1.75,2,0c0.25,0.125-0.375-14.75-0.25-17
		c0,0,13,11.5,13.75,11.875s1.375,0.25,0.875-1.25s-11.875-11.25-11.875-11.25l14.25-1c0,0,3.125-0.75,0.125-2.125l-14.25,0.25
		l9.75-9c0,0,0.375-2.375-1.625-1.375s-12.625,10.375-12.625,10.375l-34.125-14.25l-4.75-7.25L76.666,195.199z"/>
	<path fill="#333333" d="M132.249,187.699"/>
</g>
</svg>
