<?xml version="1.0" encoding="utf-8"?>
<!-- Generator: Adobe Illustrator 16.0.0, SVG Export Plug-In . SVG Version: 6.00 Build 0)  -->
<!DOCTYPE svg PUBLIC "-//W3C//DTD SVG 1.1//EN" "http://www.w3.org/Graphics/SVG/1.1/DTD/svg11.dtd">
<svg version="1.1" xmlns="http://www.w3.org/2000/svg" xmlns:xlink="http://www.w3.org/1999/xlink" x="0px" y="0px"
	 width="201.737px" height="262.997px" viewBox="0 0 201.737 262.997" enable-background="new 0 0 201.737 262.997"
	 xml:space="preserve">
<g id="legs">
	<polygon fill="#AF1E1E" points="22.38,150.997 42.728,253.997 86.815,253.997 100.38,150.997 	"/>
	<polygon fill="#AF1E1E" points="102.38,150.997 115.38,253.997 158.713,253.997 180.38,150.997 	"/>
</g>
<g id="feet">
	<path fill="#333333" d="M34.38,262.997h59C93.38,262.997,63.047,207.997,34.38,262.997z"/>
	<path fill="#333333" d="M107.38,262.997h59C166.38,262.997,136.046,207.997,107.38,262.997z"/>
</g>
<g id="lining">
	<path fill="#FFFFFF" stroke="#333333" stroke-miterlimit="10" d="M23.38,163.497h155c0,0,11.364,55.443-70.314,70.114
		c-2.837,0.509-6.186,1.258-9.686,1.198C84.213,234.023,25.13,228.616,23.38,163.497z"/>
</g>
<g id="body">
	<path fill="#AF1E1E" d="M156.933,87.69C133.33,59.143,87.247,23.561,38.12,95.799c-3.173,4.098-5.956,8.761-8.292,13.439
		c-0.482,0.826-0.965,1.758-1.448,2.758h0.255c-4.591,10-7.17,20.986-7.17,32.77c0,43.996,35.666,79.536,79.661,79.536
		c43.995,0,79.66-35.728,79.66-79.724C180.787,122.322,171.649,102.145,156.933,87.69z"/>
</g>
<g id="chest-stripe">
	<rect x="90.38" y="92.997" fill="#FFFFFF" width="14" height="133"/>
</g>
<g id="buckle">
	<rect x="82.38" y="184.997" fill="#D39B40" width="30" height="22"/>
</g>
<g id="belt">
	<path fill="#333333" d="M21.714,155.664c0,0,77,106.001,158.333,0c-0.334,0.666,0.583-3.334,0.583-7.667c0,0-74.75,95.5-159.25,0
		C21.63,148.497,21.714,155.664,21.714,155.664z"/>
</g>
<g id="buckle-sides">
	<rect x="82.38" y="184.997" fill="#EDA948" width="8" height="22"/>
	<rect x="104.38" y="184.997" fill="#EDA948" width="8" height="22"/>
</g>
<g id="hat">
	<path fill="#AF1E1E" d="M53.38,38.497c0,0-11,2.25-13.25,7.75c0.125-0.125-5.75-2.25-5.75-2.25s68.663-104.333,112.663,8.333
		c0,0.667-30.667-22-30.667-22L53.38,38.497z"/>
	<circle fill="#FCFCFC" cx="32.377" cy="49.659" r="12.333"/>
</g>
<g id="head">
	<circle fill="#FCFCFC" cx="97.547" cy="65.833" r="52.167"/>
</g>
<g id="face">
	<path fill="#FFE0BD" d="M149.38,64.997c0,0-48.667-76-104,0H149.38z"/>
</g>
<g id="eye">
	<g>
		<g>
			<circle fill="#3A3A3A" cx="92.693" cy="45.184" r="2.063"/>
			<circle fill="#EEEEEE" cx="93.235" cy="44.726" r="0.604"/>
		</g>
		<g>
			<circle fill="#3A3A3A" cx="101.693" cy="45.184" r="2.063"/>
			<circle fill="#EEEEEE" cx="102.235" cy="44.726" r="0.604"/>
		</g>
	</g>
</g>
<g id="cheeks">
	<circle fill="#E684F7" cx="80.443" cy="57.934" r="5.938"/>
	<circle fill="#E684F7" cx="113.443" cy="57.934" r="5.938"/>
</g>
<g id="moustache">
	<path fill="#FCFCFC" d="M97.478,63.372c0,0,23.5-18.875,59.625,2.25c0,0.125-22.75,16.875-59.625-1.25
		C96.978,63.747,97.478,63.372,97.478,63.372z"/>
	<path fill="#FCFCFC" d="M96.88,63.372c0,0-23.5-18.875-59.625,2.25c0,0.125,22.75,16.875,59.625-1.25
		C97.38,63.747,96.88,63.372,96.88,63.372z"/>
</g>
<g id="right-arm">
	<g>
		<path fill="#AF1E1E" d="M45.714,86.662c0,0-27.667,15.333-39.667,33.667c0.333,0.334,14,5.001,17.667,11.334L45.714,86.662z"/>
		<g>
			
				<ellipse transform="matrix(0.6868 -0.7269 0.7269 0.6868 -90.663 50.4349)" fill="#0C3A0C" cx="13.19" cy="130.417" rx="14.313" ry="12.099"/>
			<path fill="#0C3A0C" d="M26.005,127.872c0,0,6,17.5-5,10.25C21.255,138.372,26.005,127.872,26.005,127.872z"/>
		</g>
	</g>
</g>
<g id="left-arm">
	<g>
		<path fill="#AF1E1E" d="M156.023,86.662c0,0,27.667,15.333,39.667,33.667c-0.333,0.334-14,5.001-17.667,11.334L156.023,86.662z"/>
		<g>
			
				<ellipse transform="matrix(-0.6868 -0.7269 0.7269 -0.6868 223.2435 357.0329)" fill="#0C3A0C" cx="188.548" cy="130.417" rx="14.313" ry="12.099"/>
			<path fill="#0C3A0C" d="M175.732,127.872c0,0-6,17.5,5,10.25C180.482,138.372,175.732,127.872,175.732,127.872z"/>
		</g>
	</g>
</g>
<g id="nose">
	<circle fill="#EFA4FF" cx="96.88" cy="61.059" r="3.813"/>
</g>
</svg>
