<?xml version="1.0" encoding="utf-8"?>
<!-- Generator: Adobe Illustrator 16.0.0, SVG Export Plug-In . SVG Version: 6.00 Build 0)  -->
<!DOCTYPE svg PUBLIC "-//W3C//DTD SVG 1.1//EN" "http://www.w3.org/Graphics/SVG/1.1/DTD/svg11.dtd">
<svg version="1.1" id="snowflake" xmlns="http://www.w3.org/2000/svg" xmlns:xlink="http://www.w3.org/1999/xlink" x="0px" y="0px"
	 width="763.007px" height="763.891px" viewBox="0 0 763.007 763.891" enable-background="new 0 0 763.007 763.891"
	 xml:space="preserve">
<g opacity="0.5">
	<g>
		<path fill="#69A1E6" d="M397.885,510.537c0.324-0.303,0.324-0.835,0-1.184c-0.324-0.348-0.59-7.382-0.59-15.632V274.485
			c0-8.25,0.407-15.436,0.904-15.969s0.497-1.349,0-1.813s-0.904-7.594-0.904-15.844v-78.881c0-8.25,0.263-15.292,0.583-15.649
			c0.32-0.357,0.32-0.901,0-1.209s-0.583-7.31-0.583-15.56V15.049c0-8.25-6.75-15-15-15h-1.5c-8.25,0-15,6.75-15,15v84.283
			c0,8.25-4.87,10.327-10.823,4.614l-50.104-48.081c-5.953-5.712-15.333-5.364-20.846,0.774l-1.032,1.149
			c-5.513,6.138-5.153,15.833,0.8,21.545l71.182,68.308c5.953,5.712,10.823,17.136,10.823,25.386v38.444
			c0,8.25-4.936,10.396-10.968,4.768l-25.78-24.052c-6.032-5.628-15.572-5.297-21.2,0.735l-1.022,1.096
			c-5.628,6.032-5.297,15.572,0.735,21.2l47.267,44.099c6.032,5.628,10.968,16.983,10.968,25.233v42.738
			c0,8.25-4.744,10.198-10.542,4.329l-94.75-95.908c-5.798-5.869-10.542-17.421-10.542-25.671v-93.656c0-8.25-6.75-15-15-15h-1.5
			c-8.25,0-15,6.75-15,15v61.771c0,8.25-4.744,10.198-10.542,4.329L140.165,113.9c-5.798-5.869-15.344-5.927-21.213-0.129
			l-1.066,1.054c-5.869,5.798-5.927,15.344-0.129,21.213l65.207,66.003c5.798,5.869,3.793,10.542-4.455,10.385l-64.866-1.235
			c-8.248-0.157-15.125,6.463-15.283,14.711l-0.029,1.5c-0.157,8.249,6.463,15.125,14.711,15.283l97.188,1.851
			c8.249,0.157,19.741,5.087,25.539,10.957l98.561,99.765c5.798,5.869,3.792,10.671-4.458,10.671h-49.249
			c-8.25,0-19.578-4.96-25.173-11.023l-44.262-47.958c-5.595-6.063-14.981-6.285-20.856-0.494l-1.098,1.082
			c-5.875,5.791-6.105,15.49-0.51,21.552l23.827,25.817c5.595,6.063,3.423,11.023-4.827,11.023h-38.056
			c-8.25,0-19.704-4.841-25.452-10.759l-69.369-71.401c-5.749-5.917-15.135-5.897-20.859,0.044l-1.071,1.112
			c-5.724,5.941-5.703,15.644,0.045,21.562l47.299,48.684c5.749,5.917,3.702,10.759-4.548,10.759H15c-8.25,0-15,6.75-15,15v1.5
			c0,8.25,6.75,15,15,15h78.48c8.25,0,10.455,4.99,4.9,11.091l-44.119,48.445c-5.555,6.101-5.274,15.811,0.624,21.579l1.108,1.084
			c5.898,5.769,15.269,5.497,20.823-0.603l64.207-70.506c5.555-6.1,16.85-11.091,25.1-11.091h40.304
			c8.25,0,10.375,4.916,4.722,10.925l-21.759,23.13c-5.653,6.009-5.356,15.544,0.66,21.189l1.093,1.025
			c6.016,5.646,15.563,5.349,21.216-0.661l42.035-44.683c5.653-6.01,17.028-10.926,25.278-10.926h49.91
			c8.25,0,10.325,4.869,4.61,10.819l-98.134,102.194c-5.714,5.95-17.14,10.819-25.39,10.819h-92.335c-8.25,0-15,6.75-15,15v1.5
			c0,8.25,6.75,15,15,15h62.087c8.25,0,10.325,4.869,4.61,10.819l-61.44,63.982c-5.714,5.95-6.597,16.403-1.961,23.228l1.275,1.878
			c4.636,6.824,13.104,7.539,18.818,1.589l66.351-69.097c5.714-5.95,10.39-4.069,10.39,4.181v65.549c0,8.25,6.75,15,15,15h1.5
			c8.25,0,15-6.75,15-15v-98.353c0-8.25,4.675-19.869,10.39-25.819l95.054-98.987c5.714-5.95,10.39-4.069,10.39,4.181v46.485
			c0,8.25-4.936,19.604-10.968,25.232l-47.895,44.685c-6.032,5.628-6.363,15.168-0.735,21.2l1.022,1.096
			c5.628,6.032,15.168,6.363,21.201,0.735l26.407-24.638c6.032-5.628,10.968-3.482,10.968,4.768v39.897
			c0,8.25-4.868,19.676-10.818,25.391l-68.233,65.538c-5.95,5.715-6.305,15.409-0.788,21.544l1.032,1.148
			c5.517,6.135,14.898,6.478,20.848,0.763l47.141-45.279c5.95-5.715,10.818-3.641,10.818,4.609v79.804c0,8.25,6.75,15,15,15h1.5
			c8.25,0,15-6.75,15-15V638.83c0-8.25,0.177-15.169,0.393-15.377c0.215-0.207,0.215-0.572,0-0.813
			c-0.216-0.239-0.393-7.186-0.393-15.436v-81.118C397.295,517.837,397.561,510.839,397.885,510.537z"/>
	</g>
	<g>
		<path fill="#69A1E6" d="M365.122,253.354c-0.324,0.303-0.324,0.835,0,1.183s0.59,7.382,0.59,15.632v219.236
			c0,8.25-0.407,15.437-0.904,15.97c-0.498,0.532-0.498,1.349,0,1.813s0.904,7.594,0.904,15.844v78.881
			c0,8.25-0.262,15.292-0.583,15.649s-0.321,0.901,0,1.209s0.583,7.31,0.583,15.56v114.512c0,8.25,6.75,15,15,15h1.5
			c8.25,0,15-6.75,15-15v-84.283c0-8.25,4.87-10.326,10.823-4.614l50.104,48.08c5.953,5.712,15.334,5.364,20.846-0.774l1.031-1.147
			c5.513-6.139,5.153-15.834-0.8-21.546l-71.181-68.308c-5.953-5.712-10.823-17.136-10.823-25.386v-38.444
			c0-8.25,4.936-10.396,10.968-4.768l25.78,24.052c6.032,5.628,15.572,5.297,21.2-0.735l1.021-1.096
			c5.628-6.032,5.297-15.572-0.735-21.2l-47.267-44.1c-6.032-5.628-10.968-16.982-10.968-25.232v-42.737
			c0-8.25,4.744-10.198,10.542-4.329l94.749,95.907c5.798,5.869,10.542,17.421,10.542,25.671v93.656c0,8.25,6.75,15,15,15h1.5
			c8.25,0,15-6.75,15-15v-61.771c0-8.25,4.744-10.198,10.542-4.329l67.755,68.583c5.798,5.869,15.344,5.927,21.213,0.129
			l1.066-1.055c5.869-5.798,5.927-15.344,0.129-21.213l-65.206-66.003c-5.798-5.869-3.793-10.542,4.455-10.386l64.865,1.235
			c8.248,0.156,15.126-6.464,15.282-14.712l0.029-1.5c0.156-8.248-6.464-15.126-14.712-15.282l-97.188-1.852
			c-8.248-0.156-19.741-5.087-25.539-10.956l-98.561-99.765c-5.798-5.869-3.792-10.671,4.458-10.671h49.248
			c8.25,0,19.578,4.96,25.174,11.022l44.262,47.958c5.596,6.063,14.981,6.284,20.857,0.493l1.097-1.082
			c5.876-5.791,6.105-15.489,0.51-21.552l-23.826-25.817c-5.596-6.063-3.424-11.022,4.826-11.022h38.056
			c8.25,0,19.703,4.842,25.452,10.759l69.369,71.401c5.749,5.917,15.135,5.897,20.858-0.044l1.072-1.112
			c5.724-5.941,5.703-15.645-0.046-21.562l-47.299-48.684c-5.749-5.917-3.702-10.759,4.548-10.759h80.714c8.25,0,15-6.75,15-15v-1.5
			c0-8.25-6.75-15-15-15h-78.48c-8.25,0-10.455-4.991-4.9-11.09l44.118-48.446c5.555-6.1,5.274-15.81-0.624-21.579l-1.107-1.084
			c-5.898-5.769-15.269-5.498-20.823,0.602l-64.207,70.507c-5.555,6.1-16.85,11.09-25.1,11.09H556.58
			c-8.25,0-10.375-4.917-4.722-10.925l21.758-23.129c5.653-6.009,5.356-15.544-0.659-21.19l-1.094-1.025
			c-6.016-5.646-15.563-5.348-21.215,0.661l-42.035,44.684c-5.652,6.009-17.027,10.925-25.277,10.925h-49.91
			c-8.25,0-10.325-4.869-4.61-10.819l98.134-102.194c5.715-5.951,17.14-10.819,25.39-10.819h92.335c8.25,0,15-6.75,15-15v-1.5
			c0-8.25-6.75-15-15-15h-62.087c-8.25,0-10.325-4.869-4.61-10.819l61.44-63.982c5.714-5.951,6.597-16.403,1.962-23.228
			l-1.275-1.877c-4.635-6.825-13.104-7.54-18.817-1.589l-66.352,69.097c-5.714,5.951-10.39,4.069-10.39-4.181V109
			c0-8.25-6.75-15-15-15h-1.5c-8.25,0-15,6.75-15,15v98.353c0,8.25-4.675,19.869-10.39,25.819l-95.054,98.987
			c-5.715,5.951-10.39,4.069-10.39-4.181v-46.485c0-8.25,4.936-19.604,10.968-25.232l47.896-44.685
			c6.032-5.628,6.363-15.168,0.735-21.2l-1.023-1.096c-5.628-6.032-15.168-6.363-21.2-0.735l-26.407,24.638
			c-6.032,5.628-10.968,3.482-10.968-4.768v-39.897c0-8.25,4.868-19.676,10.818-25.391l68.233-65.538
			c5.95-5.715,6.305-15.41,0.788-21.544l-1.033-1.148c-5.517-6.134-14.898-6.478-20.849-0.763l-47.14,45.279
			c-5.95,5.715-10.818,3.641-10.818-4.609V15c0-8.25-6.75-15-15-15h-1.5c-8.25,0-15,6.75-15,15v110.061
			c0,8.25-0.176,15.169-0.392,15.376s-0.216,0.573,0,0.813s0.392,7.186,0.392,15.436v81.118
			C365.712,246.054,365.446,253.051,365.122,253.354z"/>
	</g>
</g>
</svg>
