<?xml version="1.0" encoding="utf-8"?>
<!-- Generator: Adobe Illustrator 16.0.0, SVG Export Plug-In . SVG Version: 6.00 Build 0)  -->
<!DOCTYPE svg PUBLIC "-//W3C//DTD SVG 1.1//EN" "http://www.w3.org/Graphics/SVG/1.1/DTD/svg11.dtd">
<svg version="1.1" xmlns="http://www.w3.org/2000/svg" xmlns:xlink="http://www.w3.org/1999/xlink" x="0px" y="0px" width="296.5px"
	 height="341.15px" viewBox="0 0 296.5 341.15" enable-background="new 0 0 296.5 341.15" xml:space="preserve">
<g id="right-arm">
	<polygon fill="#633A1E" points="63.496,196.589 30.5,178.59 18.5,140.09 32.5,123.59 29.5,120.59 13.688,138.59 2.563,134.09 
		0,138.09 13.5,144.09 26,179.59 21,180.59 21.5,183.59 27.5,184.09 62.667,204.09 	"/>
</g>
<g id="body">
	<circle fill="#FFFFFF" stroke="#BBBBBB" stroke-miterlimit="10" cx="140.037" cy="247.811" r="92.09"/>
</g>
<g id="left-arm">
	<polygon fill="#633A1E" points="215.5,233.09 215.5,221.757 249.5,219.59 253.5,206.59 259.167,205.09 256,217.424 
		283.167,196.423 288.5,183.59 292.5,183.59 289.667,192.59 296.5,194.757 295.833,197.924 288.501,195.507 286.834,198.59 
		256.667,227.424 	"/>
</g>
<g id="head">
	<circle fill="#FFFFFF" stroke="#BBBBBB" stroke-miterlimit="10" cx="139.766" cy="99.54" r="65.819"/>
</g>
<g id="hat">
	<g>
		<path fill="#333333" d="M205.98,63.298c0.262-2.055-1.191-3.932-3.246-4.194L82.208,43.754c-2.055-0.262-3.932,1.191-4.194,3.246
			l-0.063,0.496c-0.262,2.055,1.191,3.932,3.246,4.193l120.526,15.351c2.055,0.262,3.933-1.191,4.194-3.246L205.98,63.298z"/>
		<path fill="#333333" d="M97.963,49.793l13.174-45.198c0,0,2.246-5.762,9.127-4.382c7.564,0.963,68.447,8.717,68.447,8.717
			s4.23,1.043,4.219,6.418c0.198,3.722,1.099,42.815,1.099,42.815L97.963,49.793z"/>
	</g>
</g>
<g id="mouth">
	<path fill="#333333" d="M127.625,119.59c0,0,3.5,5,7.25,0H133.5c0,0-1.25,2-4.5,0.125C129.25,119.84,127.625,119.59,127.625,119.59
		z"/>
</g>
<g id="buttons">
	<circle fill="#333333" cx="137.167" cy="269.924" r="6.667"/>
	<circle fill="#333333" cx="137.167" cy="242.924" r="6.667"/>
	<circle fill="#333333" cx="137.167" cy="214.924" r="6.667"/>
</g>
<g id="eyes">
	<circle fill="#333333" cx="149.416" cy="91.173" r="5.916"/>
	<circle fill="#333333" cx="122.917" cy="90.674" r="5.417"/>
</g>
<g id="nose">
	<path fill="#F97E3A" d="M133.5,99.59h-24l21,14C130.5,113.59,138.667,108.506,133.5,99.59z"/>
</g>
</svg>
