<?xml version="1.0" encoding="utf-8"?>
<!-- Generator: Adobe Illustrator 16.0.0, SVG Export Plug-In . SVG Version: 6.00 Build 0)  -->
<!DOCTYPE svg PUBLIC "-//W3C//DTD SVG 1.1//EN" "http://www.w3.org/Graphics/SVG/1.1/DTD/svg11.dtd">
<svg version="1.1" xmlns="http://www.w3.org/2000/svg" xmlns:xlink="http://www.w3.org/1999/xlink" x="0px" y="0px"
	 width="213.931px" height="315.308px" viewBox="0 0 213.931 315.308" enable-background="new 0 0 213.931 315.308"
	 xml:space="preserve">
<g id="trunk">
	<path fill="#5E3C2F" d="M87.029,312.896c0,0,22.938,5.406,35.313,0.031c0,0-3.438-42.844-3.313-48.844h-29.5
		C89.529,264.083,87.654,302.583,87.029,312.896z"/>
</g>
<g id="tree">
	<path fill="#2A4F25" d="M90.279,42.333c0,0-27.333,51.75-47.917,58.25c-0.833,1-4.334,8.333,7.333,10.25
		c0-0.167-12.167,28.916-30.833,39.917c0,0-6.25,3.667-4.583,8.667c0.75,1.5,5.167,9.582,21.917,4.916
		c-0.75,2.834-13.083,31.583-26.083,39.5c-2.083,1.417-8.5,5.333-5.833,11.083c0.583,1.25,3.167,6.416,19,8.5
		c-0.333,2.334-6.833,27-19.583,40.25c0,0-13.584,18.422,11.333,16.005c1.417,0,11.667,0.916,18.5-4.834
		c0.5-0.333,7.667-3.916,19.917-0.083c3.167,0.5,12.583,3.667,25.083-4.75c0,0,8.75-3.917,22.417,3
		c2.167,0.59,13.702,1.316,22.833-4.16c3.188-1.104,12.874-0.972,18.458,3.612s18.292,1.252,20.417-1.373
		c2.75-1.188,15.927-2.298,25.373,1.667c3.166,0.667,9.001-0.333,10.835-1.833c0,0,14.542,4.666,15.042-2.834s-5.875-7.75-8-9.25
		s-13.125-12.75-19.625-37.875c1.625-0.125,20.125-3.125,15.5-12s-20-31.125-24-45.875c2.75,0.25,22.25-0.664,2.75-17.998
		s-24-30.127-26.125-35.377c2.625-1.625,13-6.5,1.75-12.375c-3.75-3.125-33.542-23.583-45.75-56.75c-0.542-1.167-9.625,4-19.125,1.5
		"/>
</g>
<g id="baubles">
	<circle fill="#E05E8A" cx="142.529" cy="244.75" r="8.666"/>
	<circle fill="#E05E8A" cx="107.779" cy="123.001" r="10.916"/>
	<circle fill="#E05E8A" cx="39.695" cy="164.583" r="7.833"/>
	<circle fill="#4CA8CC" cx="75.862" cy="198.75" r="10"/>
	<circle fill="#4CA8CC" cx="21.029" cy="275.583" r="7.167"/>
	<circle fill="#4CA8CC" cx="140.196" cy="182.75" r="8.333"/>
	<circle fill="#F6CF50" cx="182.696" cy="272.25" r="10.167"/>
	<circle fill="#F6CF50" cx="172.696" cy="164.25" r="9.167"/>
	<circle fill="#F6CF50" cx="78.362" cy="67.917" r="7.833"/>
	<circle fill="#F6CF50" cx="119.195" cy="63.75" r="6.667"/>
</g>
<g id="star">
	<path fill="#F6CF50" d="M101.196,44.085c1.5-1.75,7.958,3.998,7.958,3.998s2.875,1.375,5.125,2.375c6.5,2.75,4.25-6.375,4.25-6.375
		l-1.75-11c0,0,10.25-10.25,10.375-10.5c2.75-5.125-2.5-5.5-2.5-5.5l-13.75-2.125l-6.875-13.125c-3-4.125-5.875,0-5.875,0
		l-6.5,13.125c0,0-9.375,1.375-14.125,2.125s-1.875,5.5-1.875,5.5l10.5,10.5c0,0-1.5,9.5-2.125,14s4,3.625,4,3.625
		s6.375-2.625,6.25-2.375L101.196,44.085z"/>
</g>
</svg>
